<!--?xml version="1.0" standalone="no"?-->
              <svg id="sw-js-blob-svg" viewBox="0 0 100 100" xmlns="http://www.w3.org/2000/svg" version="1.1">
                    <defs> 
                        <linearGradient id="sw-gradient" x1="0" x2="1" y1="1" y2="0">
                            <stop id="stop1" stop-color="rgba(145.697, 67.21, 193.124, 1)" offset="0%"></stop>
                            <stop id="stop2" stop-color="rgba(104.492, 75.977, 124.82, 1)" offset="100%"></stop>
                        </linearGradient>
                    </defs>
                <path fill="url(#sw-gradient)" d="M20.7,-32.8C25.2,-29.3,26.1,-20.8,29.4,-13.5C32.7,-6.1,38.4,0.1,39.3,6.9C40.3,13.7,36.6,21.1,31.1,26.5C25.7,32,18.6,35.6,11.3,37C4.1,38.3,-3.4,37.6,-11.2,36.2C-19,34.8,-27.3,32.8,-31.3,27.5C-35.3,22.2,-35.1,13.6,-35.1,5.8C-35.1,-2,-35.3,-9.1,-32.9,-15.3C-30.5,-21.5,-25.5,-26.8,-19.6,-29.7C-13.7,-32.6,-6.9,-33.1,0.6,-34C8.1,-35,16.2,-36.3,20.7,-32.8Z" width="100%" height="100%" transform="translate(50 50)" stroke-width="0" style="transition: all 0.3s ease 0s;"></path>
              </svg>